# xmcd CD database file
#
# Track frame offsets:
#	150
#	14607
#	36662
#	47838
#	65859
#	78099
#	91577
#	110062
#	124553
#	138569
#	148916
#	162519
#	184261
#	200322
#	215777
#
# Disc length: 3115 seconds
#
# Revision: 2
# Processed by: cddbd v1.5.2PL0 Copyright (c) Steve Scherf et al.
# Submitted via: CDex 1.70beta2
#
DISCID=e80c290f
DTITLE=Various Artist - Juice CD #107
DYEAR=2010
DGENRE=Hip Hop
TTITLE0=Olli Banjo and Hudson Mohawke - Sie verstehen mich nicht (prod. by Hudson Mohawke)
TTITLE1=Blumentopf - Laut (prod. by Blumentopf)
TTITLE2=Haftbefehl - Streichhölzer and Benzinkanister (prod. by Morlockk Dilemma)
TTITLE3=Diamond District - Who I Be (Marco Polo Remix) (prod. by Marco Polo)
TTITLE4=Morlokk Dilemma Feat. DJ D-Fekt - Der Eiserne Besen (prod. by Morlockk Dilemma)
TTITLE5=Sylabil Spill - Scharf geguckt (prod. by Twit One)
TTITLE6=Roc Marciano - Snow (prod. by Roc Marciano)
TTITLE7=Timelss true Feat. ean Price - Priceless (prod. by PF Cuttin)
TTITLE8=Guilty Simpson - Cali Hills (prod. by Madlib)
TTITLE9=Paul White Feat. Tranqill - So Far Away (Tranqill's Version)
TTITLE10=Apollo Brown Feat. Black Milk and Rapper Big Poon - Hungry (prod. by Apollo Brown)
TTITLE11=Rakaa - Delilah (prod. by Evidence)
TTITLE12=Styles P Feat. Tyler Woods - 
TTITLE13=Dant - Traum (prod. by Larsmellow)
TTITLE14=8Ball and MJG Feat. Young Dro - Bring It Back (prod. by Frank Nitty)
EXTD=YEAR: 2010
EXTT0=Olli Banjo and Hudson Mohawke
EXTT1=Blumentopf
EXTT2=Haftbefehl
EXTT3=Diamond Dirstict
EXTT4=Morlockk Dilemma feat. DJ D-Fekt
EXTT5=Sylabil Spill
EXTT6=Roc Marciano
EXTT7=Timeless Truth feat. Sean Price
EXTT8=Guilty Simpson
EXTT9=Paul White feat. Tranqill
EXTT10=Apollo Brown feat. Black Milk and Rapper big pooh
EXTT11=Rakaa
EXTT12=Styles P feat. Tyler Woods
EXTT13=Dant
EXTT14=8Ball % MJG feat. Young Dro
PLAYORDER=
